<svg width="46" height="40" viewBox="0 0 46 40" fill="none" xmlns="http://www.w3.org/2000/svg">
<path d="M7.25205 17.7749L23.037 33.5598L38.8219 17.7749C40.2175 16.3793 41.0015 14.4865 41.0015 12.5128C41.0015 10.5392 40.2175 8.64638 38.8219 7.2508C38.1309 6.55977 37.3105 6.01162 36.4076 5.63765C35.5048 5.26367 34.5371 5.07118 33.5598 5.07118C31.5862 5.07118 29.6934 5.85521 28.2978 7.2508L23.037 12.5116L17.7762 7.25328C16.377 5.87642 14.4905 5.1082 12.5275 5.11596C10.5646 5.12372 8.68417 5.90683 7.29596 7.29471C5.90775 8.68259 5.1242 10.5628 5.11597 12.5258C5.10775 14.4887 5.87552 16.3754 7.25205 17.7749ZM21.2834 3.74111L23.037 5.49471L24.7906 3.74111C25.9404 2.58122 27.3079 1.65986 28.8147 1.02991C30.3215 0.399964 31.9379 0.0738413 33.5711 0.070265C35.2043 0.0666887 36.8221 0.38573 38.3316 1.00907C39.8412 1.63241 41.2128 2.54778 42.3676 3.70262C43.5224 4.85746 44.4378 6.22902 45.0612 7.73858C45.6845 9.24813 46.0035 10.8659 46 12.4991C45.9964 14.1323 45.6703 15.7487 45.0403 17.2555C44.4104 18.7623 43.489 20.1299 42.3291 21.2796L24.7931 38.8182C24.5627 39.0488 24.2891 39.2317 23.988 39.3565C23.6869 39.4814 23.3642 39.5456 23.0382 39.5456C22.7123 39.5456 22.3895 39.4814 22.0884 39.3565C21.7873 39.2317 21.5137 39.0488 21.2834 38.8182L3.74484 21.2821C2.56918 20.136 1.6328 18.7679 0.989994 17.2572C0.347192 15.7464 0.0107739 14.123 0.000254572 12.4812C-0.0102648 10.8394 0.305324 9.21182 0.928714 7.69293C1.5521 6.17404 2.47089 4.79404 3.63176 3.633C4.79264 2.47196 6.1725 1.55298 7.69131 0.92938C9.21011 0.305775 10.8376 -0.0100437 12.4794 0.000243457C14.1212 0.0105306 15.7447 0.346719 17.2555 0.989307C18.7664 1.6319 20.1347 2.56809 21.2809 3.74359L21.2834 3.74111Z" fill="#181725"/>
</svg>
