<svg width="20" height="20" viewBox="0 0 20 20" fill="none" xmlns="http://www.w3.org/2000/svg">
  <path d="M19.7558 18.5602L14.7366 13.5409C16.0732 11.8878 16.6288 9.77391 16.3187 7.69473C16.0086 5.61555 14.8554 3.74345 13.1093 2.47635C11.3632 1.20925 9.17753 0.642433 7.0761 0.897931C4.97467 1.15343 3.07659 2.21266 1.75852 3.86704C0.440438 5.52142 -0.189066 7.63531 0.0210717 9.71449C0.23121 11.7937 1.38438 13.6658 3.13049 14.9329C4.87661 16.2 7.06228 16.7668 9.16371 16.5113C11.2651 16.2558 13.1632 15.1966 14.4813 13.5422L19.5005 18.5614C19.5764 18.6375 19.6669 18.6982 19.7665 18.7397C19.8661 18.7812 19.9728 18.8026 20.0808 18.8026C20.1888 18.8026 20.2955 18.7812 20.3951 18.7397C20.4947 18.6982 20.5852 18.6375 20.6611 18.5614C20.7371 18.4855 20.7978 18.395 20.8393 18.2954C20.8808 18.1958 20.9022 18.0891 20.9022 17.9811C20.9022 17.8731 20.8808 17.7664 20.8393 17.6668C20.7978 17.5672 20.7371 17.4767 20.6611 17.4008L19.7558 18.5602ZM8.20055 15.0013C6.93423 15.0013 5.69551 14.6362 4.63442 13.9537C3.57333 13.2711 2.73466 12.3005 2.21831 11.1604C1.70196 10.0204 1.53062 8.7586 1.72323 7.53213C1.91584 6.30566 2.46417 5.16648 3.30063 4.25669C4.13708 3.3469 5.22645 2.71249 6.42877 2.43326C7.63109 2.15404 8.89325 2.24409 10.0465 2.69258C11.1997 3.14108 12.1979 3.92683 12.9202 4.94986C13.6424 5.97289 14.0558 7.18878 14.1006 8.45013C14.1006 10.1414 13.4205 11.7636 12.2078 12.9763C10.9951 14.189 9.37287 14.8691 7.68159 14.8691L8.20055 15.0013Z" fill="#7C7C7C"/>
</svg> 