<svg width="33" height="40" viewBox="0 0 33 40" fill="none" xmlns="http://www.w3.org/2000/svg">
<path d="M8.09601 20.14C8.37766 20.0351 8.68055 19.9805 8.98677 19.9796C9.29299 19.9786 9.59633 20.0312 9.87884 20.1344C10.1614 20.2375 10.4173 20.389 10.6316 20.58C10.8459 20.771 11.0141 20.9975 11.1264 21.2463C11.2387 21.495 11.2927 21.7608 11.2853 22.0281C11.2778 22.2954 11.2091 22.5586 11.0831 22.8023C10.9572 23.0459 10.7765 23.2651 10.5519 23.4468C10.3272 23.6284 10.0632 23.769 9.77523 23.86C8.24387 24.3868 6.92955 25.3037 6.00329 26.4915C5.07703 27.6793 4.58171 29.083 4.58178 30.52V34C4.58178 34.5304 4.82314 35.0391 5.25277 35.4142C5.68239 35.7893 6.26509 36 6.87267 36H25.1998C25.8074 36 26.3901 35.7893 26.8197 35.4142C27.2493 35.0391 27.4907 34.5304 27.4907 34V30.706C27.491 29.2229 26.9749 27.7748 26.011 26.5537C25.0471 25.3325 23.6809 24.3959 22.0934 23.868C21.8036 23.7802 21.5371 23.6426 21.3094 23.4632C21.0818 23.2838 20.8977 23.0664 20.7681 22.8237C20.6385 22.5811 20.5661 22.3182 20.555 22.0507C20.5439 21.7831 20.5945 21.5164 20.7037 21.2662C20.813 21.0161 20.9786 20.7876 21.1908 20.5943C21.4031 20.4011 21.6576 20.247 21.9393 20.1413C22.221 20.0355 22.5242 19.9802 22.8308 19.9786C23.1375 19.977 23.4413 20.0292 23.7245 20.132C26.1794 20.9484 28.2922 22.3967 29.7831 24.285C31.2739 26.1733 32.0723 28.4126 32.0725 30.706V34C32.0725 35.5913 31.3484 37.1174 30.0595 38.2426C28.7706 39.3679 27.0225 40 25.1998 40H6.87267C5.04993 40 3.30184 39.3679 2.01296 38.2426C0.724083 37.1174 0 35.5913 0 34L0 30.52C0.000315229 28.2803 0.772664 26.0925 2.21658 24.2413C3.66049 22.39 5.70913 20.961 8.09601 20.14ZM16.0362 0C18.4666 0 20.7974 0.842855 22.5159 2.34315C24.2344 3.84344 25.1998 5.87827 25.1998 8V12C25.1998 14.1217 24.2344 16.1566 22.5159 17.6569C20.7974 19.1571 18.4666 20 16.0362 20C13.6059 20 11.2751 19.1571 9.55662 17.6569C7.83812 16.1566 6.87267 14.1217 6.87267 12V8C6.87267 5.87827 7.83812 3.84344 9.55662 2.34315C11.2751 0.842855 13.6059 0 16.0362 0ZM16.0362 4C14.8211 4 13.6557 4.42143 12.7964 5.17157C11.9372 5.92172 11.4545 6.93913 11.4545 8V12C11.4545 13.0609 11.9372 14.0783 12.7964 14.8284C13.6557 15.5786 14.8211 16 16.0362 16C17.2514 16 18.4168 15.5786 19.276 14.8284C20.1353 14.0783 20.618 13.0609 20.618 12V8C20.618 6.93913 20.1353 5.92172 19.276 5.17157C18.4168 4.42143 17.2514 4 16.0362 4Z" fill="#181725"/>
</svg>
