<svg width="17" height="28" viewBox="0 0 17 28" fill="none" xmlns="http://www.w3.org/2000/svg">
<path d="M0.678995 3.53684C0.284733 3.13684 0.065697 2.61052 0.0876011 2.06316C0.0876011 1.51579 0.306635 1.01052 0.722804 0.610524C1.11707 0.231576 1.66465 -3.23052e-06 2.23415 -3.18074e-06C2.80364 -3.13095e-06 3.35123 0.189473 3.76739 0.568419L16.1648 12.4842C16.3619 12.6737 16.5152 12.9053 16.6248 13.1579C16.7343 13.4105 16.8 13.6842 16.8 13.9579C16.8 14.2316 16.7343 14.5053 16.6248 14.7789C16.5152 15.0316 16.3619 15.2632 16.1648 15.4526L3.76739 27.3684C3.57026 27.5579 3.32932 27.7263 3.06648 27.8316C2.78173 27.9368 2.49699 28 2.21224 28C1.9275 28 1.62084 27.9579 1.358 27.8526C1.09516 27.7474 0.854221 27.5789 0.635187 27.3895C0.438055 27.2 0.284731 26.9474 0.175213 26.6947C0.043791 26.4421 -1.50987e-05 26.1684 -1.50729e-05 25.8737C-1.5049e-05 25.6 0.065695 25.3263 0.175213 25.0737C0.284731 24.8211 0.459959 24.5895 0.678994 24.3789L11.5212 13.9579L9.46231 12L0.678995 3.53684Z" fill="#181725"/>
</svg>
