<svg width="36" height="40" viewBox="0 0 36 40" fill="none" xmlns="http://www.w3.org/2000/svg">
<path d="M35.0195 26.4138L31.4197 22.794V13.8746C31.4676 10.5624 30.3155 7.34477 28.1761 4.81578C26.0368 2.28678 23.0547 0.617227 19.7804 0.115387C17.8801 -0.134864 15.9484 0.0230224 14.1139 0.57851C12.2795 1.134 10.5847 2.07431 9.14249 3.33672C7.70028 4.59912 6.54389 6.15458 5.75046 7.89931C4.95703 9.64404 4.54482 11.5379 4.54132 13.4546V22.794L0.941535 26.4138C0.489374 26.8735 0.182748 27.4563 0.0599884 28.0893C-0.0627708 28.7223 0.0037838 29.3775 0.251332 29.9729C0.498879 30.5683 0.916437 31.0775 1.45181 31.4369C1.98717 31.7962 2.6166 31.9898 3.26139 31.9935H9.98099V32.6734C10.0744 34.7037 10.9688 36.6142 12.4683 37.9862C13.9677 39.3582 15.9499 40.0798 17.9805 39.993C20.0111 40.0798 21.9933 39.3582 23.4927 37.9862C24.9922 36.6142 25.8866 34.7037 25.98 32.6734V31.9935H32.6996C33.3444 31.9898 33.9738 31.7962 34.5092 31.4369C35.0446 31.0775 35.4621 30.5683 35.7097 29.9729C35.9572 29.3775 36.0238 28.7223 35.901 28.0893C35.7783 27.4563 35.4716 26.8735 35.0195 26.4138ZM21.9803 32.6734C21.8694 33.6354 21.3916 34.5174 20.6465 35.1359C19.9014 35.7543 18.9464 36.0614 17.9805 35.9932C17.0146 36.0614 16.0596 35.7543 15.3145 35.1359C14.5694 34.5174 14.0917 33.6354 13.9807 32.6734V31.9935H21.9803V32.6734ZM5.00129 27.9937L7.36115 25.6338C7.73546 25.2618 8.03243 24.8193 8.23494 24.3319C8.43745 23.8445 8.54149 23.3218 8.54108 22.794V13.4546C8.54217 12.1055 8.83182 10.7722 9.39061 9.54424C9.9494 8.31628 10.7644 7.22206 11.7809 6.33501C12.7837 5.42643 13.9719 4.74661 15.2634 4.3426C16.5548 3.93858 17.9186 3.82003 19.2604 3.99515C21.5732 4.37068 23.6726 5.56908 25.1719 7.36971C26.6712 9.17034 27.4695 11.452 27.4199 13.7946V22.794C27.4169 23.3204 27.5178 23.8422 27.7168 24.3296C27.9159 24.8169 28.2092 25.2601 28.5799 25.6338L30.9597 27.9937H5.00129Z" fill="#181725"/>
</svg>
