<svg width="30" height="30" viewBox="0 0 30 30" fill="none" xmlns="http://www.w3.org/2000/svg">
<path d="M19.5946 8.10752L4.95983 22.7423L4.00285 26.0067L7.20087 25.0821L21.8842 10.3988L19.5946 8.10752ZM22.0915 5.61064L24.3811 7.90026L26.5153 5.76609C26.667 5.61426 26.7523 5.40837 26.7523 5.19369C26.7523 4.979 26.667 4.77311 26.5153 4.62128L25.3688 3.47647C25.217 3.32469 25.0111 3.23943 24.7964 3.23943C24.5818 3.23943 24.3759 3.32469 24.224 3.47647L22.0931 5.61064H22.0915ZM27.6601 1.18685L28.8049 2.33166C29.5638 3.0908 29.9901 4.12027 29.9901 5.19369C29.9901 6.2671 29.5638 7.29657 28.8049 8.05571L8.90108 27.9611L2.06785 29.9366C1.78932 30.0169 1.49434 30.021 1.2137 29.9484C0.933065 29.8758 0.677062 29.7292 0.47242 29.5239C0.267778 29.3186 0.122001 29.0621 0.0503069 28.7812C-0.0213873 28.5004 -0.0163693 28.2054 0.0648371 27.9271L2.08566 21.0372L21.9377 1.18524C22.6968 0.42633 23.7263 0 24.7997 0C25.8731 0 26.9026 0.42633 27.6617 1.18524L27.6601 1.18685Z" fill="#53B175"/>
</svg>
