<svg width="37" height="37" viewBox="0 0 37 37" fill="none" xmlns="http://www.w3.org/2000/svg">
<path d="M16.26 28.4542C17.8614 28.4542 19.4471 28.1388 20.9265 27.526C22.406 26.9132 23.7503 26.015 24.8826 24.8826C26.015 23.7503 26.9132 22.406 27.526 20.9265C28.1388 19.4471 28.4542 17.8614 28.4542 16.26C28.4542 14.6586 28.1388 13.0729 27.526 11.5935C26.9132 10.114 26.015 8.76972 24.8826 7.63738C23.7503 6.50504 22.406 5.60682 20.9265 4.994C19.4471 4.38118 17.8614 4.06577 16.26 4.06577C13.0259 4.06577 9.92424 5.35051 7.63738 7.63738C5.35051 9.92424 4.06577 13.0259 4.06577 16.26C4.06577 19.4941 5.35051 22.5958 7.63738 24.8826C9.92424 27.1695 13.0259 28.4542 16.26 28.4542ZM29.1046 26.2308L36.3805 33.5067C36.5745 33.6943 36.7291 33.9187 36.8355 34.1667C36.9418 34.4148 36.9977 34.6815 36.9998 34.9514C37.002 35.2212 36.9504 35.4888 36.848 35.7385C36.7456 35.9882 36.5946 36.215 36.4036 36.4057C36.2127 36.5964 35.9856 36.7471 35.7358 36.8491C35.486 36.9511 35.2183 37.0024 34.9484 36.9998C34.6786 36.9973 34.4119 36.9411 34.1641 36.8344C33.9162 36.7277 33.692 36.5727 33.5047 36.3785L26.2288 29.1026C22.9617 31.6387 18.8509 32.8343 14.7332 32.4462C10.6155 32.0581 6.80054 30.1153 4.06486 27.0134C1.32917 23.9115 -0.12156 19.8836 0.00798523 15.7497C0.137531 11.6158 1.83762 7.68669 4.76215 4.76215C7.68669 1.83762 11.6158 0.137531 15.7497 0.00798523C19.8836 -0.12156 23.9115 1.32917 27.0134 4.06486C30.1153 6.80054 32.0581 10.6155 32.4462 14.7332C32.8343 18.8509 31.6387 22.9617 29.1026 26.2288L29.1046 26.2308Z" fill="#181B19"/>
</svg>
