<svg width="40" height="40" viewBox="0 0 40 40" fill="none" xmlns="http://www.w3.org/2000/svg">
<path d="M14 14.472C15.06 15.422 16.464 16 18 16H22C23.4763 16.002 24.9011 15.4578 26 14.472H14ZM14 14.472C12.9011 15.4578 11.4763 16.002 10 16L14 14.472ZM12.1 4V3.9H12H6.00001C5.44305 3.9 4.90891 4.12125 4.51508 4.51508C4.12125 4.9089 3.90001 5.44305 3.90001 6V10C3.90001 10.557 4.12125 11.0911 4.51508 11.4849C4.90891 11.8787 5.44305 12.1 6.00001 12.1H10C10.557 12.1 11.0911 11.8787 11.4849 11.4849C11.8788 11.0911 12.1 10.557 12.1 10V4ZM6.02001 15.9H5.92001V16V35.93V36.03H6.02001H10H10.1V35.93V26C10.1 24.9657 10.5109 23.9737 11.2423 23.2423C11.9737 22.5109 12.9657 22.1 14 22.1H18C19.0343 22.1 20.0263 22.5109 20.7577 23.2423C21.4891 23.9737 21.9 24.9657 21.9 26V35.93V36.03H22H34.026H34.126V35.93V16V15.9H34.026H30C28.4895 15.9 27.1091 15.3317 26.0667 14.3975L26 14.3377L25.9332 14.3976C24.8527 15.3668 23.4517 15.902 22.0001 15.9H22H18C16.4895 15.9 15.1091 15.3317 14.0667 14.3975L14 14.3377L13.9332 14.3976C12.8527 15.3668 11.4517 15.902 10.0001 15.9H10H6.02001ZM2.01634 14.3542C1.42346 13.8127 0.947403 13.1553 0.617804 12.4224C0.275348 11.6608 0.0988405 10.8351 0.100006 10.0001V10V6C0.100006 4.43522 0.721611 2.93453 1.82808 1.82807C2.93454 0.721605 4.43523 0.1 6.00001 0.1H34C35.5648 0.1 37.0655 0.721605 38.1719 1.82807C39.2784 2.93453 39.9 4.43522 39.9 6V10C39.9 11.7347 39.1528 13.2961 37.9589 14.3758L37.926 14.4056V14.45V35.93C37.926 36.9643 37.5151 37.9563 36.7837 38.6877C36.0523 39.4191 35.0604 39.83 34.026 39.83H18.746V39.8282L18.7274 39.8317C18.4876 39.8771 18.2441 39.8999 18 39.9H14C13.756 39.8999 13.5124 39.8771 13.2726 39.8317L13.2729 39.83H13.254H6.02201C4.98766 39.83 3.99568 39.4191 3.26429 38.6877C2.5329 37.9563 2.12201 36.9643 2.12201 35.93V14.49V14.2486L2.01634 14.3542ZM18.1 26V25.9H18H14H13.9V26V35.93V36.03H14H18V35.932H18.1V35.93V35.83V26ZM24.1 4V3.9H24H16H15.9V4V10C15.9 10.557 16.1213 11.0911 16.5151 11.4849C16.9089 11.8787 17.4431 12.1 18 12.1H22C22.557 12.1 23.0911 11.8787 23.4849 11.4849C23.8788 11.0911 24.1 10.557 24.1 10V4ZM28 3.9H27.9V4V10C27.9 10.557 28.1213 11.0911 28.5151 11.4849C28.9089 11.8787 29.4431 12.1 30 12.1H34C34.557 12.1 35.0911 11.8787 35.4849 11.4849C35.8788 11.0911 36.1 10.557 36.1 10V6C36.1 5.44305 35.8788 4.9089 35.4849 4.51508C35.0911 4.12125 34.557 3.9 34 3.9H28ZM28 22.1H30C30.5039 22.1 30.9872 22.3002 31.3435 22.6565C31.6998 23.0128 31.9 23.4961 31.9 24V30C31.9 30.5039 31.6998 30.9872 31.3435 31.3435C30.9872 31.6998 30.5039 31.9 30 31.9H28C27.4961 31.9 27.0128 31.6998 26.6565 31.3435C26.3002 30.9872 26.1 30.5039 26.1 30V24C26.1 23.4961 26.3002 23.0128 26.6565 22.6565C27.0128 22.3002 27.4961 22.1 28 22.1Z" fill="#53B175" stroke="white" stroke-width="0.1"/>
</svg>
